<?xml version="1.0" encoding="UTF-8" standalone="no"?>
<!-- Created with Inkscape (http://www.inkscape.org/) -->

<svg
   xmlns:osb="http://www.openswatchbook.org/uri/2009/osb"
   xmlns:dc="http://purl.org/dc/elements/1.1/"
   xmlns:cc="http://creativecommons.org/ns#"
   xmlns:rdf="http://www.w3.org/1999/02/22-rdf-syntax-ns#"
   xmlns:svg="http://www.w3.org/2000/svg"
   xmlns="http://www.w3.org/2000/svg"
   xmlns:xlink="http://www.w3.org/1999/xlink"
   xmlns:sodipodi="http://sodipodi.sourceforge.net/DTD/sodipodi-0.dtd"
   xmlns:inkscape="http://www.inkscape.org/namespaces/inkscape"
   width="32px"
   height="32px"
   id="svg2985"
   version="1.1"
   inkscape:version="0.48.2 r9819"
   sodipodi:docname="drawing.svg">
  <defs
     id="defs2987">
    <linearGradient
       id="linearGradient5300"
       osb:paint="solid">
      <stop
         style="stop-color:#9f9f9f;stop-opacity:1;"
         offset="0"
         id="stop5302" />
    </linearGradient>
    <linearGradient
       inkscape:collect="always"
       xlink:href="#linearGradient5300"
       id="linearGradient5304"
       x1="5.9121685"
       y1="11.549558"
       x2="19.449951"
       y2="11.549558"
       gradientUnits="userSpaceOnUse" />
  </defs>
  <sodipodi:namedview
     id="base"
     pagecolor="#ffffff"
     bordercolor="#666666"
     borderopacity="1.0"
     inkscape:pageopacity="0.0"
     inkscape:pageshadow="2"
     inkscape:zoom="11.197802"
     inkscape:cx="16.475108"
     inkscape:cy="16"
     inkscape:current-layer="layer1"
     showgrid="true"
     inkscape:grid-bbox="true"
     inkscape:document-units="px"
     inkscape:snap-global="false"
     inkscape:window-width="1033"
     inkscape:window-height="797"
     inkscape:window-x="100"
     inkscape:window-y="242"
     inkscape:window-maximized="0" />
  <metadata
     id="metadata2990">
    <rdf:RDF>
      <cc:Work
         rdf:about="">
        <dc:format>image/svg+xml</dc:format>
        <dc:type
           rdf:resource="http://purl.org/dc/dcmitype/StillImage" />
        <dc:title></dc:title>
      </cc:Work>
    </rdf:RDF>
  </metadata>
  <g
     id="layer1"
     inkscape:label="Layer 1"
     inkscape:groupmode="layer">
    <path
       style="fill:#424242;fill-opacity:0"
       id="path3767"
       d="m 15.236359,13.532309 c 0.163083,0.176285 0.355641,0.322045 0.521429,0.496787 0.238399,0.208395 0.423124,0.470013 0.60817,0.724912 0.109715,0.185993 0.252461,0.351281 0.364234,0.535665 0.235374,0.38828 -0.07476,-0.08624 0.152649,0.256068 0.148719,0.222854 0.297206,0.444466 0.435853,0.674458 0.119549,0.178378 0.202674,0.378147 0.309472,0.563535 0.054,0.09374 0.117339,0.181793 0.173997,0.273947 0.149498,0.279685 0.34401,0.526182 0.535464,0.776798 0.164676,0.258083 0.349268,0.504551 0.530411,0.751921 0.195039,0.315206 0.42618,0.608541 0.604039,0.933756 0.164903,0.228088 0.260599,0.494678 0.429726,0.7196 0.128123,0.224827 0.275373,0.434492 0.425461,0.644882 0.20581,0.213278 0.439078,0.391446 0.647572,0.603591 0.274966,0.277914 0.501877,0.598956 0.729088,0.915814 0.146603,0.247704 0.297219,0.497643 0.493229,0.709786 0.133758,0.141321 0.202179,0.325161 0.294773,0.492204 0.04793,0.08647 0.104468,0.167909 0.154537,0.253159 0.08075,0.181504 0.156645,0.36399 0.236985,0.545988 0,0 -1.095461,0.616149 -1.095461,0.616149 l 0,0 c -0.07676,-0.178269 -0.1462,-0.358743 -0.225845,-0.535394 -0.14144,-0.243683 -0.271984,-0.496746 -0.446626,-0.718434 -0.19009,-0.224025 -0.340902,-0.476943 -0.477806,-0.736358 -0.21118,-0.318283 -0.427042,-0.64047 -0.715414,-0.894875 -0.22689,-0.204962 -0.478275,-0.382565 -0.684407,-0.608132 -0.151573,-0.209276 -0.293111,-0.422878 -0.424346,-0.645361 -0.163493,-0.235717 -0.267186,-0.502818 -0.420025,-0.745162 -0.165589,-0.323825 -0.379385,-0.621074 -0.584784,-0.920411 -0.19451,-0.238378 -0.39381,-0.477244 -0.551502,-0.741516 -0.18938,-0.257039 -0.368732,-0.518916 -0.532454,-0.793291 -0.163844,-0.277644 -0.319634,-0.560302 -0.498995,-0.828214 -0.138689,-0.228378 -0.284333,-0.450933 -0.42755,-0.675967 -0.163151,-0.266932 -0.314681,-0.541461 -0.508111,-0.78892 -0.178576,-0.252716 -0.364461,-0.503179 -0.600059,-0.706396 -0.167012,-0.160009 -0.353519,-0.307085 -0.549502,-0.429593 0,0 1.095798,-0.720996 1.095798,-0.720996 z"
       inkscape:connector-curvature="0" />
    <rect
       style="fill:#000000;fill-opacity:0"
       id="rect3773"
       width="1.6074584"
       height="14.467125"
       x="20.361139"
       y="8.7811575" />
    <rect
       style="fill:#000000;fill-opacity:0"
       id="rect3775"
       width="0.98233563"
       height="10.716389"
       x="19.289499"
       y="9.0490675" />
    <path
       sodipodi:type="arc"
       style="color:#000000;fill:#ff0000;fill-opacity:0;fill-rule:evenodd;stroke:url(#linearGradient5304);stroke-width:3;stroke-linecap:butt;stroke-linejoin:miter;stroke-miterlimit:4;stroke-opacity:1;stroke-dasharray:none;stroke-dashoffset:0;marker:none;visibility:visible;display:inline;overflow:visible;enable-background:accumulate"
       id="path3812"
       sodipodi:cx="12.68106"
       sodipodi:cy="11.549558"
       sodipodi:rx="5.2688913"
       sodipodi:ry="5.4474978"
       d="m 17.949951,11.549558 a 5.2688913,5.4474978 0 1 1 -10.5377825,0 5.2688913,5.4474978 0 1 1 10.5377825,0 z" />
    <path
       style="fill:none;stroke:#9f9f9f;stroke-width:2.71010779999999984;stroke-linecap:butt;stroke-linejoin:miter;stroke-miterlimit:4;stroke-opacity:1;stroke-dasharray:none"
       d="m 16.476154,16.416291 7.055544,7.323453"
       id="path3814"
       inkscape:connector-curvature="0" />
  </g>
</svg>
